<svg xmlns="http://www.w3.org/2000/svg" width="24" height="24" viewBox="0 0 24 24" fill="none"><path fill-rule="evenodd" clip-rule="evenodd" d="M3.93457 9.67494L10.702 13.6473C10.7749 13.69 10.8513 13.7209 10.9291 13.7405V21.4447L4.41723 17.5267C4.11806 17.3467 3.93457 17.0195 3.93457 16.6661V9.67494ZM19.6723 9.56934V16.6661C19.6723 17.0195 19.4888 17.3467 19.1896 17.5267L12.6777 21.4447V13.673C12.6936 13.665 12.7093 13.6564 12.7249 13.6473L19.6723 9.56934Z" fill="white"></path><path fill-rule="evenodd" clip-rule="evenodd" d="M4.14697 7.74707C4.22964 7.64095 4.33397 7.55126 4.45561 7.48539L11.3409 3.75703C11.6299 3.60052 11.9766 3.60052 12.2656 3.75703L19.1509 7.48539C19.2447 7.53616 19.3281 7.6011 19.3993 7.6768L11.8504 12.1078C11.8008 12.137 11.755 12.1703 11.7133 12.2071C11.6716 12.1703 11.6258 12.137 11.5762 12.1078L4.14697 7.74707Z" fill="#796EF4"></path></svg>